<svg width="30" viewBox="0 0 48 43" fill="none" xmlns="http://www.w3.org/2000/svg"><g clip-path="url(#clip0_172_7499)"><path d="M32.32 20.36L32.82 27.08L33.01 29.59L30.57 30.21C29.06 30.59 26.99 31.12 24 31.12C21.01 31.12 18.94 30.59 17.43 30.21L14.99 29.59L15.18 27.08L15.68 20.36L7.79999 17.62C8.26999 22.97 10.11 33.84 10.66 34.9C11.3 36.12 14.69 39.62 17.34 40.96C17.34 40.96 18.3 39.94 18.89 39.04C19.63 39.92 23.48 43.01 24 43.01C24.52 43.01 28.37 39.92 29.11 39.04C29.7 39.94 30.66 40.96 30.66 40.96C33.31 39.62 36.7 36.12 37.34 34.9C37.89 33.84 39.73 22.97 40.2 17.62L32.32 20.36Z" fill="#1EBCA1"></path><path d="M29.15 18.28L48 11.73C46.88 4.99 41 0.01 41 0.01V7.42L37.51 8.32L35.32 5.67L33.45 9.37L24 11.82L14.55 9.37L12.68 5.67L10.49 8.32L7 7.42V0C7 0 1.12 4.99 0 11.72L18.85 18.27L18.18 27.29C19.79 27.7 21.48 28.11 24.01 28.11C26.54 28.11 28.23 27.7 29.84 27.29L29.17 18.27L29.15 18.28Z" fill="#1EBCA1"></path></g><defs><clipPath id="clip0_172_7499"><rect width="48" height="43" fill="white"></rect></clipPath></defs></svg>