<svg width="6" height="10" viewBox="0 0 6 10" fill="none" xmlns="http://www.w3.org/2000/svg">
<path fill-rule="evenodd" clip-rule="evenodd" d="M5.31463 0.391676C5.43167 0.508864 5.49742 0.667717 5.49742 0.833343C5.49742 0.998968 5.43167 1.15782 5.31463 1.27501L1.58963 5.00001L5.31463 8.72501C5.37604 8.78223 5.42529 8.85123 5.45945 8.92789C5.49361 9.00456 5.51198 9.08732 5.51346 9.17124C5.51494 9.25516 5.4995 9.33852 5.46807 9.41634C5.43663 9.49416 5.38985 9.56486 5.3305 9.62421C5.27115 9.68356 5.20045 9.73034 5.12263 9.76178C5.04481 9.79321 4.96145 9.80865 4.87753 9.80717C4.79361 9.80569 4.71085 9.78732 4.63418 9.75316C4.55752 9.719 4.48852 9.66975 4.4313 9.60834L0.264632 5.44168C0.14759 5.32449 0.0818481 5.16563 0.0818481 5.00001C0.0818481 4.83438 0.14759 4.67553 0.264632 4.55834L4.4313 0.391676C4.54849 0.274634 4.70734 0.208893 4.87297 0.208893C5.03859 0.208893 5.19744 0.274634 5.31463 0.391676Z" fill="#A8A8A0"/>
</svg>
