<svg width="6" height="10" viewBox="0 0 6 10" fill="none" xmlns="http://www.w3.org/2000/svg">
<path fill-rule="evenodd" clip-rule="evenodd" d="M0.264598 0.391676C0.147556 0.508864 0.0818143 0.667717 0.0818143 0.833343C0.0818143 0.998968 0.147556 1.15782 0.264598 1.27501L3.9896 5.00001L0.264598 8.72501C0.203192 8.78223 0.15394 8.85123 0.11978 8.92789C0.0856201 9.00456 0.0672517 9.08732 0.0657711 9.17124C0.0642904 9.25516 0.0797278 9.33852 0.111162 9.41634C0.142596 9.49416 0.189384 9.56486 0.248733 9.62421C0.308082 9.68356 0.378776 9.73034 0.4566 9.76178C0.534423 9.79321 0.61778 9.80865 0.701699 9.80717C0.785618 9.80569 0.86838 9.78732 0.945046 9.75316C1.02171 9.719 1.09071 9.66975 1.14793 9.60834L5.3146 5.44168C5.43164 5.32449 5.49738 5.16563 5.49738 5.00001C5.49738 4.83438 5.43164 4.67553 5.3146 4.55834L1.14793 0.391676C1.03074 0.274634 0.87189 0.208893 0.706264 0.208893C0.540639 0.208893 0.381786 0.274634 0.264598 0.391676Z" fill="#A8A8A0"/>
</svg>
