<svg width="25" height="24" viewBox="0 0 25 24" fill="none" xmlns="http://www.w3.org/2000/svg">
<path fill-rule="evenodd" clip-rule="evenodd" d="M13.55 4.75C13.55 4.55109 13.471 4.36032 13.3303 4.21967C13.1897 4.07902 12.9989 4 12.8 4C12.6011 4 12.4103 4.07902 12.2697 4.21967C12.129 4.36032 12.05 4.55109 12.05 4.75V13.44L9.83 11.22C9.68783 11.0875 9.49978 11.0154 9.30548 11.0188C9.11118 11.0223 8.92579 11.101 8.78838 11.2384C8.65097 11.3758 8.57226 11.5612 8.56883 11.7555C8.5654 11.9498 8.63752 12.1378 8.77 12.28L12.27 15.78C12.4106 15.9205 12.6013 15.9993 12.8 15.9993C12.9988 15.9993 13.1894 15.9205 13.33 15.78L16.83 12.28C16.9037 12.2113 16.9628 12.1285 17.0038 12.0365C17.0448 11.9445 17.0668 11.8452 17.0686 11.7445C17.0704 11.6438 17.0518 11.5438 17.0141 11.4504C16.9764 11.357 16.9203 11.2722 16.849 11.201C16.7778 11.1297 16.693 11.0736 16.5996 11.0359C16.5062 10.9982 16.4062 10.9796 16.3055 10.9814C16.2048 10.9832 16.1055 11.0052 16.0135 11.0462C15.9215 11.0872 15.8387 11.1463 15.77 11.22L13.55 13.44V4.75ZM5.55 10.75C5.55 10.6837 5.57634 10.6201 5.62323 10.5732C5.67011 10.5263 5.7337 10.5 5.8 10.5H6.8C6.99892 10.5 7.18968 10.421 7.33033 10.2803C7.47099 10.1397 7.55 9.94891 7.55 9.75C7.55 9.55109 7.47099 9.36032 7.33033 9.21967C7.18968 9.07902 6.99892 9 6.8 9H5.8C5.33587 9 4.89075 9.18437 4.56257 9.51256C4.23438 9.84075 4.05 10.2859 4.05 10.75V17.75C4.05 18.4793 4.33973 19.1788 4.85546 19.6945C5.37118 20.2103 6.07066 20.5 6.8 20.5H18.8C19.5293 20.5 20.2288 20.2103 20.7445 19.6945C21.2603 19.1788 21.55 18.4793 21.55 17.75V10.75C21.55 10.2859 21.3656 9.84075 21.0374 9.51256C20.7093 9.18437 20.2641 9 19.8 9H18.8C18.6011 9 18.4103 9.07902 18.2697 9.21967C18.129 9.36032 18.05 9.55109 18.05 9.75C18.05 9.94891 18.129 10.1397 18.2697 10.2803C18.4103 10.421 18.6011 10.5 18.8 10.5H19.8C19.8663 10.5 19.9299 10.5263 19.9768 10.5732C20.0237 10.6201 20.05 10.6837 20.05 10.75V17.75C20.05 18.44 19.49 19 18.8 19H6.8C6.11 19 5.55 18.44 5.55 17.75V10.75Z" fill="#A8A8A0"/>
</svg>
