<svg width="21" height="21" viewBox="0 0 21 21" fill="none" xmlns="http://www.w3.org/2000/svg">
<path fill-rule="evenodd" clip-rule="evenodd" d="M8.1 4.14166C7.93424 4.14166 7.77526 4.20751 7.65805 4.32472C7.54084 4.44193 7.475 4.6009 7.475 4.76666C7.475 4.93242 7.54084 5.09139 7.65805 5.2086C7.77526 5.32581 7.93424 5.39166 8.1 5.39166H13.1C13.2658 5.39166 13.4247 5.32581 13.5419 5.2086C13.6591 5.09139 13.725 4.93242 13.725 4.76666C13.725 4.6009 13.6591 4.44193 13.5419 4.32472C13.4247 4.20751 13.2658 4.14166 13.1 4.14166H8.1ZM5.80833 7.26666C5.80833 7.1009 5.87418 6.94193 5.99139 6.82472C6.1086 6.70751 6.26757 6.64166 6.43333 6.64166H14.7667C14.9324 6.64166 15.0914 6.70751 15.2086 6.82472C15.3258 6.94193 15.3917 7.1009 15.3917 7.26666C15.3917 7.43242 15.3258 7.59139 15.2086 7.7086C15.0914 7.82581 14.9324 7.89166 14.7667 7.89166H6.43333C6.26757 7.89166 6.1086 7.82581 5.99139 7.7086C5.87418 7.59139 5.80833 7.43242 5.80833 7.26666ZM4.14166 11.4333C4.14166 10.8255 4.38311 10.2426 4.81288 9.81288C5.24265 9.38311 5.82554 9.14166 6.43333 9.14166H14.7667C15.3745 9.14166 15.9573 9.38311 16.3871 9.81288C16.8169 10.2426 17.0583 10.8255 17.0583 11.4333V15.6C17.0583 16.2078 16.8169 16.7907 16.3871 17.2204C15.9573 17.6502 15.3745 17.8917 14.7667 17.8917H6.43333C5.82554 17.8917 5.24265 17.6502 4.81288 17.2204C4.38311 16.7907 4.14166 16.2078 4.14166 15.6V11.4333ZM6.43333 10.3917C5.85833 10.3917 5.39166 10.8583 5.39166 11.4333V15.6C5.39166 16.175 5.85833 16.6417 6.43333 16.6417H14.7667C15.3417 16.6417 15.8083 16.175 15.8083 15.6V11.4333C15.8083 10.8583 15.3417 10.3917 14.7667 10.3917H6.43333Z" fill="#A7A7A0" fill-opacity="0.6"/>
</svg>
