<svg width="20" height="20" viewBox="0 0 20 20" fill="none" xmlns="http://www.w3.org/2000/svg">
<path fill-rule="evenodd" clip-rule="evenodd" d="M4.16667 4.375C3.59167 4.375 3.125 4.84167 3.125 5.41667V14.1667C3.125 14.7417 3.59167 15.2083 4.16667 15.2083H15.8333C16.4083 15.2083 16.875 14.7417 16.875 14.1667V7.08333C16.875 6.50833 16.4083 6.04167 15.8333 6.04167H10.4167C10.251 6.04152 10.0921 5.97558 9.975 5.85833L8.79583 4.68C8.60065 4.48487 8.336 4.37517 8.06 4.375H4.16667ZM1.875 5.41667C1.875 4.80888 2.11644 4.22598 2.54621 3.79621C2.97598 3.36644 3.55888 3.125 4.16667 3.125H8.06C8.6675 3.125 9.25 3.36667 9.68 3.79583L10.6758 4.79167H15.8333C16.4411 4.79167 17.024 5.03311 17.4538 5.46288C17.8836 5.89265 18.125 6.47555 18.125 7.08333V14.1667C18.125 14.7745 17.8836 15.3573 17.4538 15.7871C17.024 16.2169 16.4411 16.4583 15.8333 16.4583H4.16667C3.55888 16.4583 2.97598 16.2169 2.54621 15.7871C2.11644 15.3573 1.875 14.7745 1.875 14.1667V5.41667Z" fill="#A8A8A0"/>
</svg>
