<svg width="20" height="20" viewBox="0 0 20 20" fill="none" xmlns="http://www.w3.org/2000/svg">
<path fill-rule="evenodd" clip-rule="evenodd" d="M7.99667 3.45C8.50667 1.35 11.4933 1.35 12.0033 3.45C12.0334 3.57422 12.0925 3.68958 12.1756 3.78668C12.2587 3.88378 12.3636 3.95987 12.4817 4.00877C12.5998 4.05766 12.7277 4.07798 12.8552 4.06805C12.9826 4.05813 13.1059 4.01825 13.215 3.95167C15.0608 2.82667 17.1733 4.94 16.0483 6.785C15.9817 6.8941 15.9419 7.01739 15.9319 7.14482C15.922 7.27226 15.9423 7.40023 15.9912 7.51833C16.0401 7.63642 16.1162 7.7413 16.2133 7.82442C16.3104 7.90755 16.4258 7.96656 16.55 7.99667C18.65 8.50667 18.65 11.4933 16.55 12.0033C16.4258 12.0334 16.3104 12.0925 16.2133 12.1756C16.1162 12.2587 16.0401 12.3636 15.9912 12.4817C15.9423 12.5998 15.922 12.7277 15.9319 12.8552C15.9419 12.9826 15.9817 13.1059 16.0483 13.215C17.1733 15.0608 15.0608 17.1733 13.215 16.0483C13.1059 15.9817 12.9826 15.9419 12.8552 15.9319C12.7277 15.922 12.5998 15.9423 12.4817 15.9912C12.3636 16.0401 12.2587 16.1162 12.1756 16.2133C12.0925 16.3104 12.0334 16.4258 12.0033 16.55C11.4933 18.65 8.50667 18.65 7.99667 16.55C7.96656 16.4258 7.90755 16.3104 7.82442 16.2133C7.7413 16.1162 7.63642 16.0401 7.51833 15.9912C7.40023 15.9423 7.27226 15.922 7.14482 15.9319C7.01739 15.9419 6.8941 15.9817 6.785 16.0483C4.94 17.1733 2.82667 15.0608 3.95167 13.215C4.01825 13.1059 4.05813 12.9826 4.06805 12.8552C4.07798 12.7277 4.05766 12.5998 4.00877 12.4817C3.95987 12.3636 3.88378 12.2587 3.78668 12.1756C3.68958 12.0925 3.57422 12.0334 3.45 12.0033C1.35 11.4933 1.35 8.50667 3.45 7.99667C3.57422 7.96656 3.68958 7.90755 3.78668 7.82442C3.88378 7.7413 3.95987 7.63642 4.00877 7.51833C4.05766 7.40023 4.07798 7.27226 4.06805 7.14482C4.05813 7.01739 4.01825 6.8941 3.95167 6.785C2.82667 4.94 4.94 2.82667 6.785 3.95167C6.8941 4.01825 7.01739 4.05813 7.14482 4.06805C7.27226 4.07798 7.40023 4.05766 7.51833 4.00877C7.63642 3.95987 7.7413 3.88378 7.82442 3.78668C7.90755 3.68958 7.96656 3.57422 7.99667 3.45ZM10.7883 3.745C10.5883 2.91833 9.41167 2.91833 9.21083 3.745C9.13436 4.06032 8.98455 4.35314 8.77358 4.59964C8.56261 4.84615 8.29644 5.03938 7.99671 5.16363C7.69698 5.28787 7.37216 5.33962 7.04866 5.31466C6.72517 5.2897 6.41212 5.18875 6.135 5.02C5.40833 4.57667 4.57667 5.40833 5.01917 6.135C5.74583 7.32667 5.1025 8.88167 3.745 9.21083C2.91833 9.41167 2.91833 10.5883 3.745 10.7883C4.06044 10.8648 4.35339 11.0146 4.59999 11.2256C4.84659 11.4366 5.03989 11.7029 5.16414 12.0027C5.2884 12.3026 5.34011 12.6275 5.31506 12.9511C5.29001 13.2747 5.18892 13.5879 5.02 13.865C4.57667 14.5917 5.40833 15.4233 6.135 14.9808C6.41207 14.8121 6.72505 14.7111 7.0485 14.6861C7.37195 14.6611 7.69673 14.7128 7.99645 14.8369C8.29616 14.9611 8.56235 15.1542 8.77336 15.4006C8.98437 15.647 9.13426 15.9398 9.21083 16.255C9.41167 17.0817 10.5883 17.0817 10.7883 16.255C10.8648 15.9396 11.0146 15.6466 11.2256 15.4C11.4366 15.1534 11.7029 14.9601 12.0027 14.8359C12.3026 14.7116 12.6275 14.6599 12.9511 14.6849C13.2747 14.71 13.5879 14.8111 13.865 14.98C14.5917 15.4233 15.4233 14.5917 14.9808 13.865C14.8119 13.5879 14.7108 13.2748 14.6857 12.9513C14.6606 12.6277 14.7122 12.3028 14.8364 12.003C14.9606 11.7032 15.1538 11.4369 15.4003 11.2258C15.6468 11.0148 15.9396 10.8649 16.255 10.7883C17.0817 10.5883 17.0817 9.41167 16.255 9.21083C15.9397 9.13436 15.6469 8.98455 15.4004 8.77358C15.1538 8.56261 14.9606 8.29644 14.8364 7.99671C14.7121 7.69698 14.6604 7.37216 14.6853 7.04866C14.7103 6.72517 14.8113 6.41212 14.98 6.135C15.4233 5.40833 14.5917 4.57667 13.865 5.01917C12.6733 5.74583 11.1183 5.1025 10.7883 3.745ZM10 8.125C9.50272 8.125 9.02581 8.32254 8.67417 8.67417C8.32254 9.02581 8.125 9.50272 8.125 10C8.125 10.4973 8.32254 10.9742 8.67417 11.3258C9.02581 11.6775 9.50272 11.875 10 11.875C10.4973 11.875 10.9742 11.6775 11.3258 11.3258C11.6775 10.9742 11.875 10.4973 11.875 10C11.875 9.50272 11.6775 9.02581 11.3258 8.67417C10.9742 8.32254 10.4973 8.125 10 8.125ZM6.875 10C6.875 9.1712 7.20424 8.37634 7.79029 7.79029C8.37634 7.20424 9.1712 6.875 10 6.875C10.8288 6.875 11.6237 7.20424 12.2097 7.79029C12.7958 8.37634 13.125 9.1712 13.125 10C13.125 10.8288 12.7958 11.6237 12.2097 12.2097C11.6237 12.7958 10.8288 13.125 10 13.125C9.1712 13.125 8.37634 12.7958 7.79029 12.2097C7.20424 11.6237 6.875 10.8288 6.875 10Z" fill="#A8A8A0"/>
</svg>
