<svg width="20" height="20" viewBox="0 0 20 20" fill="none" xmlns="http://www.w3.org/2000/svg">
<path fill-rule="evenodd" clip-rule="evenodd" d="M6.83751 2.32251C7.16501 2.32251 7.43084 2.58834 7.43084 2.91584V3.50834H12.5692V2.91668C12.5749 2.76327 12.6399 2.61807 12.7505 2.51157C12.861 2.40507 13.0086 2.34558 13.1621 2.34558C13.3156 2.34558 13.4631 2.40507 13.5737 2.51157C13.6843 2.61807 13.7493 2.76327 13.755 2.91668V3.50918H15.5342C15.8198 3.50918 16.1025 3.56544 16.3664 3.67475C16.6302 3.78407 16.8699 3.94429 17.0718 4.14627C17.2737 4.34825 17.4339 4.58802 17.5431 4.8519C17.6523 5.11578 17.7084 5.39859 17.7083 5.68418V15.1708C17.7083 15.7475 17.4793 16.3005 17.0715 16.7082C16.6638 17.1159 16.1108 17.345 15.5342 17.345H4.46584C4.18025 17.345 3.89746 17.2887 3.63363 17.1794C3.36979 17.0701 3.13008 16.9099 2.92818 16.7079C2.72627 16.5059 2.56614 16.2662 2.45693 16.0023C2.34772 15.7384 2.29156 15.4556 2.29167 15.17V5.68334C2.29156 5.39776 2.34772 5.11495 2.45693 4.85107C2.56614 4.58719 2.72627 4.34741 2.92818 4.14544C3.13008 3.94346 3.36979 3.78324 3.63363 3.67392C3.89746 3.56461 4.18025 3.50834 4.46584 3.50834H6.24501V2.91668C6.24501 2.58918 6.51001 2.32334 6.83751 2.32334V2.32251ZM12.5692 4.69418V5.28751C12.5749 5.44091 12.6399 5.58612 12.7505 5.69262C12.861 5.79911 13.0086 5.85861 13.1621 5.85861C13.3156 5.85861 13.4631 5.79911 13.5737 5.69262C13.6843 5.58612 13.7493 5.44091 13.755 5.28751V4.69418H15.5342C16.08 4.69418 16.5225 5.13668 16.5225 5.68251V7.06584H3.47751V5.68334C3.47751 5.13751 3.92001 4.69501 4.46584 4.69501H6.24501V5.28834C6.24202 5.36808 6.25514 5.44759 6.28359 5.52214C6.31204 5.59668 6.35523 5.66472 6.41058 5.72219C6.46594 5.77966 6.53231 5.82537 6.60574 5.85659C6.67916 5.88782 6.75813 5.90391 6.83792 5.90391C6.91771 5.90391 6.99668 5.88782 7.07011 5.85659C7.14353 5.82537 7.20991 5.77966 7.26526 5.72219C7.32061 5.66472 7.36381 5.59668 7.39226 5.52214C7.42071 5.44759 7.43383 5.36808 7.43084 5.28834V4.69501L12.5692 4.69418ZM16.5225 8.25251H3.47751V15.1692C3.47751 15.7158 3.92001 16.1583 4.46584 16.1583H15.5342C16.08 16.1583 16.5225 15.7158 16.5225 15.17V8.25251ZM6.04751 9.47751C5.99549 9.4774 5.94397 9.48756 5.8959 9.50742C5.84782 9.52727 5.80414 9.55642 5.76736 9.5932C5.73059 9.62998 5.70143 9.67366 5.68158 9.72174C5.66173 9.76981 5.65156 9.82133 5.65167 9.87334V11.0592C5.65167 11.2775 5.82834 11.4542 6.04667 11.4542H7.23334C7.28528 11.4543 7.33673 11.4442 7.38475 11.4243C7.43277 11.4045 7.47642 11.3755 7.51318 11.3388C7.54995 11.3021 7.57912 11.2585 7.59902 11.2105C7.61893 11.1626 7.62917 11.1111 7.62917 11.0592V9.87251C7.62917 9.82057 7.61893 9.76914 7.59902 9.72116C7.57912 9.67318 7.54995 9.6296 7.51318 9.59291C7.47642 9.55622 7.43277 9.52714 7.38475 9.50734C7.33673 9.48754 7.28528 9.4774 7.23334 9.47751H6.04751ZM5.65167 12.9558C5.65167 12.7383 5.82834 12.5608 6.04667 12.5608H7.23334C7.45167 12.5608 7.62917 12.7383 7.62917 12.9558V14.1425C7.62917 14.1945 7.61893 14.2459 7.59902 14.2939C7.57912 14.3418 7.54995 14.3854 7.51318 14.4221C7.47642 14.4588 7.43277 14.4879 7.38475 14.5077C7.33673 14.5275 7.28528 14.5376 7.23334 14.5375H6.04667C5.94191 14.5375 5.84144 14.4959 5.76736 14.4218C5.69329 14.3477 5.65167 14.2473 5.65167 14.1425V12.9558ZM9.36751 9.47751C9.31556 9.47751 9.26413 9.48776 9.21615 9.50766C9.16817 9.52756 9.12459 9.55673 9.0879 9.5935C9.05121 9.63027 9.02213 9.67391 9.00233 9.72193C8.98253 9.76995 8.9724 9.8214 8.97251 9.87334V11.0592C8.97251 11.2775 9.14917 11.4542 9.36751 11.4542H10.5533C10.6053 11.4543 10.6567 11.4442 10.7048 11.4243C10.7528 11.4045 10.7964 11.3755 10.8332 11.3388C10.87 11.3021 10.8991 11.2585 10.919 11.2105C10.9389 11.1626 10.9492 11.1111 10.9492 11.0592V9.87251C10.9492 9.82057 10.9389 9.76914 10.919 9.72116C10.8991 9.67318 10.87 9.6296 10.8332 9.59291C10.7964 9.55622 10.7528 9.52714 10.7048 9.50734C10.6567 9.48754 10.6053 9.4774 10.5533 9.47751H9.36751ZM8.97251 12.9558C8.97251 12.7383 9.14917 12.5608 9.36751 12.5608H10.5533C10.7717 12.5608 10.9492 12.7383 10.9492 12.9558V14.1425C10.9492 14.1945 10.9389 14.2459 10.919 14.2939C10.8991 14.3418 10.87 14.3854 10.8332 14.4221C10.7964 14.4588 10.7528 14.4879 10.7048 14.5077C10.6567 14.5275 10.6053 14.5376 10.5533 14.5375H9.36751C9.26275 14.5375 9.16228 14.4959 9.0882 14.4218C9.01412 14.3477 8.97251 14.2473 8.97251 14.1425V12.9558ZM12.7667 9.47751C12.7147 9.47751 12.6633 9.48776 12.6153 9.50766C12.5673 9.52756 12.5238 9.55673 12.4871 9.5935C12.4504 9.63027 12.4213 9.67391 12.4015 9.72193C12.3817 9.76995 12.3716 9.8214 12.3717 9.87334V11.0592C12.3717 11.2775 12.5492 11.4542 12.7667 11.4542H13.9533C14.0581 11.4542 14.1586 11.4126 14.2326 11.3385C14.3067 11.2644 14.3483 11.1639 14.3483 11.0592V9.87251C14.3483 9.76775 14.3067 9.66728 14.2326 9.5932C14.1586 9.51913 14.0581 9.47751 13.9533 9.47751H12.7667Z" fill="#A8A8A0"/>
</svg>
