<svg width="20" height="16" viewBox="0 0 20 16" fill="none" xmlns="http://www.w3.org/2000/svg">
<path fill-rule="evenodd" clip-rule="evenodd" d="M0.450073 3C0.450073 2.27065 0.739805 1.57118 1.25553 1.05546C1.77125 0.539731 2.47073 0.25 3.20007 0.25H17.2001C17.9294 0.25 18.6289 0.539731 19.1446 1.05546C19.6603 1.57118 19.9501 2.27065 19.9501 3V13C19.9501 13.7293 19.6603 14.4288 19.1446 14.9445C18.6289 15.4603 17.9294 15.75 17.2001 15.75H3.20007C2.47073 15.75 1.77125 15.4603 1.25553 14.9445C0.739805 14.4288 0.450073 13.7293 0.450073 13V3ZM3.20007 1.75H10.4501V14.25H3.20007C2.51007 14.25 1.95007 13.69 1.95007 13V3C1.95007 2.31 2.51007 1.75 3.20007 1.75ZM11.9501 1.75V14.25H17.2001C17.8901 14.25 18.4501 13.69 18.4501 13V3C18.4501 2.31 17.8901 1.75 17.2001 1.75H11.9501ZM14.0001 3.25C13.8012 3.25 13.6104 3.32902 13.4697 3.46967C13.3291 3.61032 13.2501 3.80109 13.2501 4C13.2501 4.19891 13.3291 4.38968 13.4697 4.53033C13.6104 4.67098 13.8012 4.75 14.0001 4.75H16.0001C16.199 4.75 16.3898 4.67098 16.5304 4.53033C16.6711 4.38968 16.7501 4.19891 16.7501 4C16.7501 3.80109 16.6711 3.61032 16.5304 3.46967C16.3898 3.32902 16.199 3.25 16.0001 3.25H14.0001ZM13.2501 6.5C13.2501 6.30109 13.3291 6.11032 13.4697 5.96967C13.6104 5.82902 13.8012 5.75 14.0001 5.75H16.0001C16.199 5.75 16.3898 5.82902 16.5304 5.96967C16.6711 6.11032 16.7501 6.30109 16.7501 6.5C16.7501 6.69891 16.6711 6.88968 16.5304 7.03033C16.3898 7.17098 16.199 7.25 16.0001 7.25H14.0001C13.8012 7.25 13.6104 7.17098 13.4697 7.03033C13.3291 6.88968 13.2501 6.69891 13.2501 6.5ZM14.0001 8.25C13.8012 8.25 13.6104 8.32902 13.4697 8.46967C13.3291 8.61032 13.2501 8.80109 13.2501 9C13.2501 9.19891 13.3291 9.38968 13.4697 9.53033C13.6104 9.67098 13.8012 9.75 14.0001 9.75H16.0001C16.199 9.75 16.3898 9.67098 16.5304 9.53033C16.6711 9.38968 16.7501 9.19891 16.7501 9C16.7501 8.80109 16.6711 8.61032 16.5304 8.46967C16.3898 8.32902 16.199 8.25 16.0001 8.25H14.0001Z" fill="#A8A8A0"/>
</svg>
