<svg width="25" height="24" viewBox="0 0 25 24" fill="none" xmlns="http://www.w3.org/2000/svg">
<path fill-rule="evenodd" clip-rule="evenodd" d="M12.8 4.5C13.26 4.5 13.633 4.873 13.633 5.333V11.167H19.467C19.6879 11.167 19.8998 11.2548 20.056 11.411C20.2122 11.5672 20.3 11.7791 20.3 12C20.3 12.2209 20.2122 12.4328 20.056 12.589C19.8998 12.7452 19.6879 12.833 19.467 12.833H13.633V18.667C13.633 18.8879 13.5452 19.0998 13.389 19.256C13.2328 19.4122 13.0209 19.5 12.8 19.5C12.5791 19.5 12.3672 19.4122 12.211 19.256C12.0548 19.0998 11.967 18.8879 11.967 18.667V12.833H6.133C5.91208 12.833 5.7002 12.7452 5.54398 12.589C5.38777 12.4328 5.3 12.2209 5.3 12C5.3 11.7791 5.38777 11.5672 5.54398 11.411C5.7002 11.2548 5.91208 11.167 6.133 11.167H11.967V5.333C11.967 4.873 12.34 4.5 12.8 4.5Z" fill="#A8A8A0"/>
</svg>
