<svg width="17" height="17" viewBox="0 0 17 17" fill="none" xmlns="http://www.w3.org/2000/svg">
<path fill-rule="evenodd" clip-rule="evenodd" d="M1.92501 6.91667C1.92501 6.28742 2.04895 5.66433 2.28975 5.08298C2.53056 4.50162 2.88351 3.97339 3.32845 3.52845C3.7734 3.0835 4.30163 2.73055 4.88298 2.48974C5.46433 2.24894 6.08742 2.125 6.71667 2.125C7.34593 2.125 7.96901 2.24894 8.55037 2.48974C9.13172 2.73055 9.65995 3.0835 10.1049 3.52845C10.5498 3.97339 10.9028 4.50162 11.1436 5.08298C11.3844 5.66433 11.5083 6.28742 11.5083 6.91667C11.5083 8.1875 11.0035 9.40627 10.1049 10.3049C9.20628 11.2035 7.9875 11.7083 6.71667 11.7083C5.44585 11.7083 4.22707 11.2035 3.32845 10.3049C2.42984 9.40627 1.92501 8.1875 1.92501 6.91667ZM6.71667 0.875C5.74967 0.875148 4.79682 1.10741 3.93822 1.55227C3.07961 1.99713 2.34033 2.64159 1.7825 3.43148C1.22468 4.22137 0.864601 5.13363 0.73254 6.09158C0.600479 7.04952 0.700289 8.02518 1.02358 8.93654C1.34688 9.84791 1.88421 10.6684 2.59042 11.3289C3.29663 11.9895 4.15109 12.4709 5.08199 12.7327C6.01289 12.9945 6.99302 13.029 7.94003 12.8334C8.88704 12.6377 9.77324 12.2176 10.5242 11.6083L15.0242 16.1083C15.0818 16.1681 15.1507 16.2157 15.227 16.2485C15.3032 16.2813 15.3852 16.2986 15.4682 16.2993C15.5512 16.3001 15.6335 16.2843 15.7103 16.2529C15.7872 16.2215 15.857 16.1752 15.9157 16.1165C15.9744 16.0578 16.0208 15.9881 16.0523 15.9113C16.0837 15.8345 16.0996 15.7522 16.0989 15.6692C16.0982 15.5862 16.081 15.5042 16.0483 15.4279C16.0156 15.3517 15.968 15.2827 15.9083 15.225L11.4083 10.7242C12.1279 9.83768 12.5815 8.76546 12.7166 7.63174C12.8518 6.49802 12.6629 5.34921 12.1719 4.31843C11.6809 3.28766 10.9078 2.41712 9.94233 1.80768C8.97684 1.19824 7.85842 0.874858 6.71667 0.875Z" fill="#A8A8A0"/>
</svg>
