<svg width="20" height="16" viewBox="0 0 20 16" fill="none" xmlns="http://www.w3.org/2000/svg">
<path fill-rule="evenodd" clip-rule="evenodd" d="M0.25 3C0.25 2.27065 0.539731 1.57118 1.05546 1.05546C1.57118 0.539731 2.27065 0.25 3 0.25H17C17.7293 0.25 18.4288 0.539731 18.9445 1.05546C19.4603 1.57118 19.75 2.27065 19.75 3V13C19.75 13.7293 19.4603 14.4288 18.9445 14.9445C18.4288 15.4603 17.7293 15.75 17 15.75H3C2.27065 15.75 1.57118 15.4603 1.05546 14.9445C0.539731 14.4288 0.25 13.7293 0.25 13V3ZM3 1.75H8.25V14.25H3C2.31 14.25 1.75 13.69 1.75 13V3C1.75 2.31 2.31 1.75 3 1.75ZM9.75 1.75V14.25H17C17.69 14.25 18.25 13.69 18.25 13V3C18.25 2.31 17.69 1.75 17 1.75H9.75ZM4 3.25C3.80109 3.25 3.61032 3.32902 3.46967 3.46967C3.32902 3.61032 3.25 3.80109 3.25 4C3.25 4.19891 3.32902 4.38968 3.46967 4.53033C3.61032 4.67098 3.80109 4.75 4 4.75H6C6.19891 4.75 6.38968 4.67098 6.53033 4.53033C6.67098 4.38968 6.75 4.19891 6.75 4C6.75 3.80109 6.67098 3.61032 6.53033 3.46967C6.38968 3.32902 6.19891 3.25 6 3.25H4ZM3.25 6.5C3.25 6.30109 3.32902 6.11032 3.46967 5.96967C3.61032 5.82902 3.80109 5.75 4 5.75H6C6.19891 5.75 6.38968 5.82902 6.53033 5.96967C6.67098 6.11032 6.75 6.30109 6.75 6.5C6.75 6.69891 6.67098 6.88968 6.53033 7.03033C6.38968 7.17098 6.19891 7.25 6 7.25H4C3.80109 7.25 3.61032 7.17098 3.46967 7.03033C3.32902 6.88968 3.25 6.69891 3.25 6.5ZM4 8.25C3.80109 8.25 3.61032 8.32902 3.46967 8.46967C3.32902 8.61032 3.25 8.80109 3.25 9C3.25 9.19891 3.32902 9.38968 3.46967 9.53033C3.61032 9.67098 3.80109 9.75 4 9.75H6C6.19891 9.75 6.38968 9.67098 6.53033 9.53033C6.67098 9.38968 6.75 9.19891 6.75 9C6.75 8.80109 6.67098 8.61032 6.53033 8.46967C6.38968 8.32902 6.19891 8.25 6 8.25H4Z" fill="#A8A8A0"/>
</svg>
