<svg width="17" height="16" viewBox="0 0 17 16" fill="none" xmlns="http://www.w3.org/2000/svg">
<path fill-rule="evenodd" clip-rule="evenodd" d="M6.735 1.68331C7.21 0.42498 8.99084 0.42498 9.465 1.68331L10.765 5.13665C10.7793 5.17489 10.8046 5.20807 10.8376 5.23207C10.8707 5.25607 10.91 5.26983 10.9508 5.27165L14.6367 5.44081C15.9808 5.50331 16.5308 7.19665 15.48 8.03665L12.5975 10.3408C12.5656 10.3663 12.5419 10.4005 12.5293 10.4393C12.5167 10.4782 12.5158 10.5198 12.5267 10.5591L13.5042 14.1175C13.8608 15.4141 12.4208 16.4608 11.2958 15.7208L8.21417 13.6916C8.18024 13.6694 8.14056 13.6576 8.1 13.6576C8.05944 13.6576 8.01976 13.6694 7.98584 13.6916L4.90334 15.7208C3.78 16.4608 2.33917 15.4141 2.695 14.1166L3.67334 10.5583C3.68386 10.5192 3.68276 10.4779 3.67018 10.4394C3.6576 10.401 3.63408 10.367 3.6025 10.3416L0.720002 8.03665C-0.330831 7.19665 0.220003 5.50331 1.56334 5.44081L5.24917 5.27165C5.28997 5.26983 5.32933 5.25607 5.36237 5.23207C5.39541 5.20807 5.42067 5.17489 5.435 5.13665L6.735 1.68331ZM8.295 2.12415C8.28009 2.08448 8.25343 2.05031 8.21859 2.02619C8.18375 2.00207 8.14238 1.98915 8.1 1.98915C8.05763 1.98915 8.01626 2.00207 7.98142 2.02619C7.94658 2.05031 7.91992 2.08448 7.905 2.12415L6.605 5.57748C6.50444 5.84431 6.32785 6.0758 6.09709 6.24331C5.86633 6.41083 5.59152 6.50702 5.30667 6.51998L1.62084 6.68998C1.57857 6.69202 1.53792 6.70689 1.50431 6.73261C1.4707 6.75832 1.44572 6.79366 1.43269 6.83393C1.41966 6.87419 1.4192 6.91747 1.43138 6.958C1.44355 6.99853 1.46778 7.03439 1.50084 7.06081L4.3825 9.36415C4.60527 9.54215 4.77097 9.78156 4.8591 10.0528C4.94723 10.3239 4.95392 10.615 4.87834 10.89L3.90084 14.4483C3.88972 14.4891 3.89127 14.5323 3.90528 14.5722C3.91929 14.612 3.94509 14.6467 3.97927 14.6716C4.01345 14.6964 4.05438 14.7103 4.09663 14.7114C4.13889 14.7124 4.18046 14.7006 4.21584 14.6775L7.29834 12.6483C7.53636 12.4917 7.81506 12.4082 8.1 12.4082C8.38494 12.4082 8.66364 12.4917 8.90167 12.6483L11.9833 14.6775C12.0187 14.7009 12.0604 14.713 12.1028 14.7121C12.1452 14.7112 12.1864 14.6973 12.2207 14.6724C12.255 14.6475 12.281 14.6127 12.295 14.5726C12.309 14.5326 12.3105 14.4892 12.2992 14.4483L11.3217 10.89C11.2463 10.6151 11.253 10.3242 11.3412 10.0532C11.4293 9.78219 11.5949 9.54292 11.8175 9.36498L14.6992 7.06081C14.7322 7.03439 14.7565 6.99853 14.7686 6.958C14.7808 6.91747 14.7803 6.87419 14.7673 6.83393C14.7543 6.79366 14.7293 6.75832 14.6957 6.73261C14.6621 6.70689 14.6214 6.69202 14.5792 6.68998L10.8933 6.51998C10.6085 6.50702 10.3337 6.41083 10.1029 6.24331C9.87216 6.0758 9.69557 5.84431 9.595 5.57748L8.295 2.12415Z" fill="#A7A7A0" fill-opacity="0.6"/>
</svg>
