<svg width="21" height="20" viewBox="0 0 21 20" fill="none" xmlns="http://www.w3.org/2000/svg">
<path fill-rule="evenodd" clip-rule="evenodd" d="M4.15002 10C4.15002 10.1894 4.18734 10.377 4.25983 10.552C4.33232 10.727 4.43857 10.886 4.57252 11.02C4.70647 11.1539 4.86549 11.2602 5.0405 11.3327C5.21552 11.4052 5.40309 11.4425 5.59252 11.4425C5.78196 11.4425 5.96953 11.4052 6.14455 11.3327C6.31956 11.2602 6.47858 11.1539 6.61253 11.02C6.74647 10.886 6.85273 10.727 6.92522 10.552C6.99771 10.377 7.03502 10.1894 7.03502 10C7.03502 9.61742 6.88305 9.25051 6.61253 8.97999C6.342 8.70947 5.9751 8.5575 5.59252 8.5575C5.20995 8.5575 4.84304 8.70947 4.57252 8.97999C4.302 9.25051 4.15002 9.61742 4.15002 10ZM10.4 11.4417C10.2107 11.4417 10.0232 11.4044 9.84832 11.3319C9.67341 11.2595 9.51448 11.1533 9.38061 11.0194C9.24674 10.8855 9.14055 10.7266 9.0681 10.5517C8.99565 10.3768 8.95836 10.1893 8.95836 10C8.95836 9.81067 8.99565 9.6232 9.0681 9.44829C9.14055 9.27338 9.24674 9.11445 9.38061 8.98058C9.51448 8.84671 9.67341 8.74052 9.84832 8.66807C10.0232 8.59562 10.2107 8.55833 10.4 8.55833C10.7824 8.55833 11.1491 8.71022 11.4194 8.98058C11.6898 9.25095 11.8417 9.61764 11.8417 10C11.8417 10.3823 11.6898 10.749 11.4194 11.0194C11.1491 11.2898 10.7824 11.4417 10.4 11.4417ZM15.2084 11.4417C15.019 11.4417 14.8316 11.4044 14.6567 11.3319C14.4817 11.2595 14.3228 11.1533 14.1889 11.0194C14.0551 10.8855 13.9489 10.7266 13.8764 10.5517C13.804 10.3768 13.7667 10.1893 13.7667 10C13.7667 9.81067 13.804 9.6232 13.8764 9.44829C13.9489 9.27338 14.0551 9.11445 14.1889 8.98058C14.3228 8.84671 14.4817 8.74052 14.6567 8.66807C14.8316 8.59562 15.019 8.55833 15.2084 8.55833C15.5907 8.55833 15.9574 8.71022 16.2278 8.98058C16.4981 9.25095 16.65 9.61764 16.65 10C16.65 10.3823 16.4981 10.749 16.2278 11.0194C15.9574 11.2898 15.5907 11.4417 15.2084 11.4417Z" fill="#A8A8A0"/>
</svg>
